<?xml version="1.0" encoding="UTF-8"?>
<svg width="187px" height="41px" viewBox="0 0 187 41" version="1.1" xmlns="http://www.w3.org/2000/svg" xmlns:xlink="http://www.w3.org/1999/xlink">
    <!-- Generator: sketchtool 41 (35326) - http://www.bohemiancoding.com/sketch -->
    <title>B20ECDB4-18A4-4059-96F6-827F0EE0D96C</title>
    <desc>Created with sketchtool.</desc>
    <defs>
        <linearGradient x1="126.689089%" y1="-222.351601%" x2="-191.399445%" y2="743.02157%" id="linearGradient-1">
            <stop stop-color="#1ED7E2" offset="0%"></stop>
            <stop stop-color="#1FD4E4" offset="31.68%"></stop>
            <stop stop-color="#24CBE9" offset="54.92%"></stop>
            <stop stop-color="#2CBBF3" offset="75.4%"></stop>
            <stop stop-color="#36A7FF" offset="92.43%"></stop>
        </linearGradient>
        <linearGradient x1="85.9298117%" y1="-2.36072634%" x2="19.8148283%" y2="118.424768%" id="linearGradient-2">
            <stop stop-color="#1ED7E2" offset="0%"></stop>
            <stop stop-color="#1FD4E4" offset="31.68%"></stop>
            <stop stop-color="#24CBE9" offset="54.92%"></stop>
            <stop stop-color="#2CBBF3" offset="75.4%"></stop>
            <stop stop-color="#36A7FF" offset="92.43%"></stop>
        </linearGradient>
        <linearGradient x1="137.532024%" y1="-234.10475%" x2="15.0499869%" y2="161.870377%" id="linearGradient-3">
            <stop stop-color="#1ED7E2" offset="0%"></stop>
            <stop stop-color="#1FD4E4" offset="31.68%"></stop>
            <stop stop-color="#24CBE9" offset="54.92%"></stop>
            <stop stop-color="#2CBBF3" offset="75.4%"></stop>
            <stop stop-color="#36A7FF" offset="92.43%"></stop>
        </linearGradient>
    </defs>
    <g id="Welcome" stroke="none" stroke-width="1" fill="none" fill-rule="evenodd">
        <g id="HOME" transform="translate(-102.000000, -9.000000)">
            <g id="Group-46">
                <g id="Group-11" transform="translate(102.000000, 9.000000)">
                    <g id="Group-6">
                        <path d="M14.2703583,26.5737536 C17.1889251,26.5737536 19.5732899,28.945712 19.5732899,31.8780782 C19.5732899,34.7974116 17.2019544,37.1824027 14.2703583,37.1824027 C11.3517915,37.1824027 8.96742671,34.8104443 8.96742671,31.8780782 C8.96742671,28.9587448 11.3517915,26.5737536 14.2703583,26.5737536 L14.2703583,26.5737536 Z M14.2703583,23.6544202 C9.73615635,23.6544202 6.04885993,27.3426852 6.04885993,31.8780782 C6.04885993,36.4134712 9.73615635,40.1017361 14.2703583,40.1017361 C18.8045603,40.1017361 22.4918567,36.4134712 22.4918567,31.8780782 C22.4918567,27.3426852 18.8045603,23.6544202 14.2703583,23.6544202 L14.2703583,23.6544202 L14.2703583,23.6544202 Z" fill="#000000"></path>
                        <path d="M53.4234528,26.5737536 C56.3420195,26.5737536 58.7263844,28.945712 58.7263844,31.8780782 C58.7263844,34.7974116 56.3550489,37.1824027 53.4234528,37.1824027 C50.504886,37.1824027 48.1205212,34.8104443 48.1205212,31.8780782 C48.1205212,28.9587448 50.504886,26.5737536 53.4234528,26.5737536 L53.4234528,26.5737536 Z M53.4234528,23.6544202 C48.8892508,23.6544202 45.2019544,27.3426852 45.2019544,31.8780782 C45.2019544,36.4134712 48.8892508,40.1017361 53.4234528,40.1017361 C57.9576547,40.1017361 61.6449511,36.4134712 61.6449511,31.8780782 C61.6449511,27.3426852 57.9576547,23.6544202 53.4234528,23.6544202 L53.4234528,23.6544202 L53.4234528,23.6544202 Z" fill="#000000"></path>
                        <path d="M37.228013,3.72736319 C37.3583062,3.8316251 37.6970684,3.84465784 37.8925081,3.70129771 L42.0879479,0.625571444 C42.3224756,0.456145845 42.1921824,0.091229169 41.9185668,0.091229169 L31.5211726,0.091229169 C31.1954397,0.091229169 30.9348534,0.351883937 30.9348534,0.677702398 L30.9348534,1.73335421 C30.9348534,2.05917267 31.1954397,2.31982744 31.5211726,2.31982744 L34.8697068,2.31982744 C36.4201954,2.31982744 36.6938111,3.31031556 37.228013,3.72736319 L37.228013,3.72736319 Z" fill="url(#linearGradient-1)"></path>
                        <path d="M59.4820847,20.526563 L44.3029316,1.83761612 C44.0032573,1.47269944 43.4820847,1.40753575 43.1042345,1.68122326 L38.6872964,4.92637512 C38.3615635,5.16096442 38.2442997,5.60407752 38.4006515,5.9689942 L42.2442997,15.1570748 C42.3224756,15.3395331 42.3355049,15.5350242 42.2833876,15.7174825 L38.5960912,29.6625127 C38.4918567,30.0534948 38.1400651,30.3662805 37.7491857,30.3662805 L32.3680782,30.3662805 C32.0162866,30.3662805 31.7035831,30.1056258 31.5602606,29.79284 L27.5863192,20.774185 C27.4690554,20.5135303 27.247557,20.3180392 26.9739414,20.2528755 L3.22149837,15.1049438 C2.4267101,14.9355182 1.8534202,15.8217444 2.32247557,16.4733814 L12.3680782,30.2489859 C13.47557,31.7607835 15.2214984,32.6991407 17.0977199,32.6991407 L42.8566775,32.6991407 C43.3517915,32.6991407 43.7947883,32.2299621 43.7947883,31.7347181 L43.7947883,31.6565216 C43.7947883,28.0334203 45.762215,24.8534322 48.7198697,23.1982744 L52.1726384,32.138733 C52.3811075,32.686108 52.8892508,33.0119264 53.4364821,33.0119264 C53.6058632,33.0119264 53.762215,32.985861 53.9315961,32.9206973 C54.6351792,32.6470098 54.9869707,31.8520127 54.713355,31.1482448 L51.247557,22.1947535 C51.9511401,22.0253279 52.6807818,21.9471315 53.4364821,21.9471315 L58.8436482,21.9471315 C59.5472313,21.9601642 59.9511401,21.1000035 59.4820847,20.526563 L59.4820847,20.526563 Z" fill="url(#linearGradient-2)"></path>
                        <path d="M27.495114,18.0242772 L28.4332248,14.8312563 C29.1628664,12.355036 27.2996743,9.86578299 24.7198697,9.86578299 L2.55700326,9.86578299 C1.24104235,9.86578299 0.185667752,10.9214348 0.185667752,12.2377414 L0.185667752,12.2377414 C0.185667752,12.654789 0.472312704,13.0066729 0.876221498,13.0979021 L26.4788274,18.6368159 C26.9218241,18.7280451 27.3648208,18.4673903 27.495114,18.0242772 L27.495114,18.0242772 Z" fill="url(#linearGradient-3)"></path>
                    </g>
                    <g id="Page-1" transform="translate(76.000000, 10.000000)" fill="#000000">
                        <path d="M109.561527,4.67261269 C109.428617,4.88446982 109.289007,5.04313729 109.142697,5.14915601 C108.996568,5.25499442 108.808067,5.30800378 108.577737,5.30800378 C108.373845,5.30800378 108.154561,5.24399588 107.919886,5.11598008 C107.684848,4.98814459 107.419028,4.84462265 107.122243,4.68595518 C106.825096,4.52692711 106.486121,4.38358547 106.105316,4.25556967 C105.72415,4.12791448 105.289928,4.06372628 104.80247,4.06372628 C103.960463,4.06372628 103.333757,4.24240749 102.921626,4.5997699 C102.509496,4.95713231 102.303612,5.44034687 102.303612,6.04923328 C102.303612,6.43760797 102.427649,6.7594505 102.675724,7.0154821 C102.923799,7.27151369 103.249375,7.49202541 103.652814,7.67719756 C104.055891,7.86255001 104.516731,8.03257663 105.035153,8.1867365 C105.553576,8.34125698 106.083044,8.51344724 106.623739,8.70312699 C107.164072,8.89298704 107.693721,9.1156624 108.212325,9.37151369 C108.730747,9.62772559 109.191406,9.95389542 109.594845,10.3509247 C109.998103,10.7481343 110.323679,11.2311685 110.571754,11.8003881 C110.819829,12.3694273 110.943866,13.0558444 110.943866,13.8587379 C110.943866,14.7499803 110.788865,15.583886 110.47868,16.3604551 C110.168496,17.1370241 109.718701,17.8142457 109.129478,18.3921199 C108.540073,18.9701743 107.813594,19.4247205 106.949496,19.7555783 C106.085398,20.086436 105.103781,20.251955 104.004827,20.251955 C103.402204,20.251955 102.788535,20.1899305 102.164002,20.0666026 C101.539106,19.9430944 100.93431,19.7685601 100.349432,19.5437211 C99.7645546,19.3187018 99.2149869,19.0520323 98.7009103,18.7429913 C98.1870147,18.4341307 97.7393931,18.0899305 97.3582268,17.710571 L98.6878728,15.6192256 C98.7851109,15.4601975 98.9225481,15.332362 99.0998222,15.2353585 C99.2770962,15.1381746 99.4674078,15.0896729 99.6714812,15.0896729 C99.9373018,15.0896729 100.205295,15.1736945 100.475643,15.3410166 C100.745809,15.5088795 101.051467,15.694232 101.392796,15.8970739 C101.733763,16.1000962 102.126157,16.2854486 102.569251,16.4531313 C103.012527,16.6208139 103.535114,16.704475 104.137918,16.704475 C104.953307,16.704475 105.586713,16.5257938 106.038861,16.1682511 C106.490829,15.8110689 106.716812,15.2440131 106.716812,14.467444 C106.716812,14.0175856 106.592594,13.6515686 106.344519,13.3688521 C106.096263,13.0864961 105.770687,12.8528222 105.36761,12.6674697 C104.96399,12.481937 104.505504,12.3187619 103.991608,12.1777642 C103.477713,12.0365862 102.950237,11.8799021 102.409904,11.7077119 C101.869028,11.5357019 101.341914,11.3238448 100.828018,11.0723208 C100.31376,10.8207968 99.8552741,10.489939 99.4520163,10.0797476 C99.0487586,9.6693758 98.7231827,9.15767322 98.4751077,8.54427921 C98.2268515,7.93106551 98.1029951,7.17414957 98.1029951,6.2742526 C98.1029951,5.55069288 98.2489429,4.84462265 98.5413817,4.1562222 C98.8338206,3.46800206 99.2636966,2.85478836 99.8308287,2.31640079 C100.397961,1.77837383 101.093657,1.34798832 101.9181,1.02596548 C102.741998,0.703942646 103.685951,0.542931227 104.749414,0.542931227 C105.342984,0.542931227 105.921343,0.58926934 106.484129,0.681765261 C107.046915,0.774441487 107.58091,0.911472482 108.085933,1.09213703 C108.591137,1.27298188 109.063023,1.48916631 109.501591,1.74069031 C109.940339,1.9922143 110.332551,2.27673392 110.678046,2.59442947 L109.561527,4.67261269 Z" id="Fill-23"></path>
                        <path d="M7.15160506,12.6674697 L12.4423033,12.6674697 L10.6612331,7.3860067 C10.5458873,7.05082167 10.410623,6.65613634 10.2556214,6.20140981 C10.1006197,5.74686357 9.94760995,5.25499442 9.79695416,4.72562205 C9.65517113,5.26382931 9.50886117,5.76255001 9.35856754,6.22124324 C9.20754959,6.68011677 9.06594763,7.07732635 8.93303736,7.41269168 L7.15160506,12.6674697 Z M19.5941075,20.0400979 L16.1114599,20.0400979 C15.7212396,20.0400979 15.4001907,19.9495853 15.1475887,19.7685601 C14.8949868,19.5880759 14.7198856,19.3563853 14.6224664,19.0738491 L13.4793294,15.7117215 L6.11494111,15.7117215 L4.971623,19.0738491 C4.88307651,19.3208655 4.71014829,19.5437211 4.45320049,19.7422358 C4.19607162,19.9407504 3.88172251,20.0400979 3.50942887,20.0400979 L-1.81076671e-05,20.0400979 L7.4974615,0.754608054 L12.096809,0.754608054 L19.5941075,20.0400979 Z" id="Fill-11"></path>
                        <path d="M64.6841002,8.56411265 L65.4018881,8.56411265 C66.0664395,8.56411265 66.5452062,8.35694342 66.837645,7.94188375 L71.1977902,1.64134284 C71.4368114,1.29732292 71.7095129,1.06364901 72.0153514,0.939780201 C72.3210088,0.816452305 72.6952943,0.754608054 73.13857,0.754608054 L77.0467478,0.754608054 L71.3042633,8.55077016 C71.1000088,8.83348673 70.8872437,9.06716064 70.665968,9.25251309 C70.4445113,9.43768524 70.2183465,9.59202541 69.988017,9.71553361 C70.3248196,9.83940242 70.632831,10.0090684 70.9118701,10.2252529 C71.1910904,10.4416176 71.4456842,10.7304645 71.6763759,11.0923345 L77.5253334,20.0400979 L73.5106825,20.0400979 C73.2535537,20.0400979 73.0342698,20.0224281 72.852831,19.9870885 C72.67103,19.9519293 72.5136744,19.8989199 72.3809452,19.8282407 C72.2478538,19.7579222 72.1326891,19.6717369 72.0350887,19.5702258 C71.9374884,19.468895 71.8445961,19.3516974 71.7560496,19.2193543 L67.3692861,12.508622 C67.2097576,12.2616056 67.0080382,12.0872517 66.7646711,11.9855602 C66.5205798,11.8844097 66.190477,11.833564 65.7740007,11.833564 L64.6841002,11.833564 L64.6841002,20.0400979 L60.1910447,20.0400979 L60.1910447,0.754608054 L64.6841002,0.754608054 L64.6841002,8.56411265 Z" id="Fill-19"></path>
                        <path d="M50.3810711,16.8103134 C51.0010777,16.8103134 51.5508264,16.7574843 52.0294121,16.6516459 C52.5078166,16.5456272 52.959784,16.4046295 53.3853142,16.2279317 L53.3853142,13.3026805 L51.4709716,13.3026805 C51.1874055,13.3026805 50.9659488,13.2280347 50.8062392,13.0776612 C50.6468917,12.9278286 50.5672179,12.7381489 50.5672179,12.508622 L50.5672179,10.0465716 L57.4528395,10.0465716 L57.4528395,18.186934 C56.9566894,18.548804 56.4402587,18.8600086 55.9044529,19.1201872 C55.3679227,19.3805461 54.7962636,19.5943865 54.1892946,19.7620692 C53.5823256,19.9297519 52.9351576,20.0534404 52.2486959,20.1327741 C51.561691,20.2121078 50.8238036,20.251955 50.0352147,20.251955 C48.6173843,20.251955 47.3056649,20.002775 46.1005997,19.5040543 C44.8951723,19.0056942 43.8516274,18.3172937 42.9699651,17.4390332 C42.0879406,16.5611333 41.396771,15.5198781 40.896275,14.3154478 C40.395598,13.1108371 40.1449879,11.802732 40.1449879,10.3905916 C40.1449879,8.95248734 40.3845524,7.63085945 40.8629569,6.42642912 C41.3415426,5.2219988 42.0261935,4.18290719 42.9169096,3.30933459 C43.8074447,2.43558169 44.8841266,1.75637675 46.1471364,1.27081824 C47.4099651,0.785620331 48.8210956,0.542931227 50.3810711,0.542931227 C51.1874055,0.542931227 51.9450303,0.608922469 52.6539455,0.741265562 C53.3628607,0.873788959 54.0167285,1.05463381 54.6148248,1.28416073 C55.2131021,1.51350734 55.7601347,1.78702842 56.2564659,2.10454366 C56.752616,2.42241951 57.1957106,2.76643943 57.5859308,3.13714433 L56.2830842,5.10948914 C56.1590467,5.29466129 56.0105638,5.44034687 55.8376356,5.54618528 C55.6648884,5.652204 55.4767498,5.70485275 55.2728574,5.70485275 C55.0068558,5.70485275 54.7321625,5.61686443 54.4485964,5.44034687 C54.0942294,5.22848974 53.7595997,5.04548124 53.4450695,4.89096076 C53.1303582,4.73662059 52.8089471,4.61076844 52.4811984,4.51376492 C52.1534496,4.4167614 51.8075931,4.34626256 51.4445344,4.30208809 C51.0809325,4.25791363 50.67351,4.23573624 50.2213615,4.23573624 C49.379355,4.23573624 48.6217302,4.38358547 47.948306,4.67928394 C47.2747008,4.9749824 46.7008688,5.39184511 46.2269912,5.93005237 C45.7527514,6.46825964 45.3871576,7.11464927 45.1300287,7.86922126 C44.8728998,8.62379325 44.7445165,9.46400962 44.7445165,10.3905916 C44.7445165,11.4145376 44.8862995,12.3230892 45.1700467,13.1173281 C45.4534316,13.9115669 45.8458248,14.5822976 46.3465018,15.1293397 C46.8469977,15.6765622 47.4407481,16.0936052 48.127753,16.3801082 C48.8143958,16.6669718 49.5653207,16.8103134 50.3810711,16.8103134" id="Fill-16"></path>
                        <path d="M24.0208346,0.781094702 C24.1535638,0.798944793 24.2732555,0.831940414 24.3795475,0.880442174 C24.4860206,0.928943934 24.5877856,0.997459432 24.685386,1.08562806 C24.7828052,1.17397699 24.8934431,1.29297759 25.0176617,1.44281017 L34.2163566,13.0248141 C34.1810467,12.6541092 34.1544284,12.2947635 34.1366829,11.9458753 C34.1191184,11.5975281 34.1102457,11.268834 34.1102457,10.9597931 L34.1102457,0.754590023 L38.07166,0.754590023 L38.07166,20.0400798 L35.7319684,20.0400798 C35.3864741,20.0400798 35.0940352,19.9870705 34.8546519,19.8812321 C34.6152685,19.7753937 34.3847579,19.5813866 34.1634822,19.2988503 L25.0308803,7.80952262 C25.0574985,8.14506826 25.0795899,8.47358204 25.0975165,8.79578518 C25.115262,9.11798832 25.1241347,9.42017773 25.1241347,9.7023534 L25.1241347,20.0400798 L21.1627204,20.0400798 L21.1627204,0.754590023 L23.5290303,0.754590023 C23.7236878,0.754590023 23.8877432,0.763424916 24.0208346,0.781094702" id="Fill-14"></path>
                        <path d="M84.7563768,12.6674697 L90.047075,12.6674697 L88.2660049,7.3860067 C88.1506591,7.05082167 88.0153948,6.65613634 87.8603931,6.20140981 C87.7053915,5.74686357 87.5523817,5.25499442 87.4017259,4.72562205 C87.2599429,5.26382931 87.113633,5.76255001 86.9633393,6.22124324 C86.8123214,6.68011677 86.6707194,7.07732635 86.5378091,7.41269168 L84.7563768,12.6674697 Z M97.1988793,20.0400979 L93.7162316,20.0400979 C93.3260114,20.0400979 93.0049625,19.9495853 92.7523605,19.7685601 C92.4997586,19.5880759 92.3246574,19.3563853 92.2272382,19.0738491 L91.0839201,15.7117215 L83.7197129,15.7117215 L82.5763948,19.0738491 C82.4878483,19.3208655 82.3149201,19.5437211 82.0579723,19.7422358 C81.8008434,19.9407504 81.4864943,20.0400979 81.1142007,20.0400979 L77.6047537,20.0400979 L85.1022333,0.754608054 L89.7015808,0.754608054 L97.1988793,20.0400979 Z" id="Fill-21"></path>
                    </g>
                </g>
            </g>
        </g>
    </g>
</svg>